<svg width="75" height="77" viewBox="0 0 75 77" fill="none" xmlns="http://www.w3.org/2000/svg">
<path d="M20.536 56.28C18.936 56.28 17.592 56.088 16.504 55.704C15.416 55.32 14.552 54.808 13.912 54.168C13.2507 53.528 12.7813 52.7813 12.504 51.928C12.2053 51.0747 12.056 50.168 12.056 49.208C12.056 48.2053 12.216 47.3093 12.536 46.52C12.856 45.7093 13.3573 45.0267 14.04 44.472C14.7227 43.896 15.608 43.4587 16.696 43.16C17.7627 42.8613 19.0533 42.712 20.568 42.712H29.24V56.28H20.536ZM29.24 23.384V36.76H22.392C19.448 36.76 17.2293 36.2267 15.736 35.16C14.2213 34.0933 13.464 32.3973 13.464 30.072C13.464 27.6613 14.1467 25.944 15.512 24.92C16.8773 23.896 19.0107 23.384 21.912 23.384H29.24ZM21.912 16.728C18.8827 16.728 16.2907 17.016 14.136 17.592C11.9813 18.168 10.2213 18.9893 8.856 20.056C7.46933 21.1227 6.456 22.4133 5.816 23.928C5.176 25.4427 4.856 27.1493 4.856 29.048C4.856 30.136 5.016 31.1813 5.336 32.184C5.656 33.1653 6.15733 34.0933 6.84 34.968C7.50133 35.8213 8.35466 36.6 9.4 37.304C10.424 38.008 11.6507 38.6053 13.08 39.096C6.72267 40.5253 3.544 43.96 3.544 49.4C3.544 51.3627 3.91733 53.176 4.664 54.84C5.41066 56.504 6.49866 57.944 7.928 59.16C9.35733 60.3547 11.1173 61.2933 13.208 61.976C15.2987 62.6587 17.688 63 20.376 63H37.848V16.728H21.912Z" fill="#248DA5"/>
<path d="M55.192 39.992C56.7707 39.992 58.1467 39.8 59.32 39.416C60.4933 39.0107 61.464 38.4453 62.232 37.72C63.0213 36.9733 63.608 36.0773 63.992 35.032C64.376 33.9653 64.568 32.7813 64.568 31.48C64.568 30.2427 64.376 29.1227 63.992 28.12C63.608 27.1173 63.032 26.264 62.264 25.56C61.496 24.856 60.5253 24.3227 59.352 23.96C58.1787 23.576 56.792 23.384 55.192 23.384H48.76V39.992H55.192ZM55.192 16.728C58.2853 16.728 60.9627 17.0907 63.224 17.816C65.4853 18.5413 67.352 19.5547 68.824 20.856C70.296 22.1573 71.384 23.7147 72.088 25.528C72.8133 27.3413 73.176 29.3253 73.176 31.48C73.176 33.72 72.8027 35.7787 72.056 37.656C71.3093 39.512 70.1893 41.112 68.696 42.456C67.2027 43.8 65.3253 44.8453 63.064 45.592C60.824 46.3387 58.2 46.712 55.192 46.712H48.76V63H40.152V16.728H55.192Z" fill="#248DA5"/>
</svg>
